<?xml version="1.0" encoding="UTF-8" standalone="no" ?>
<!DOCTYPE svg PUBLIC "-//W3C//DTD SVG 1.1//EN" "http://www.w3.org/Graphics/SVG/1.1/DTD/svg11.dtd">
<svg xmlns="http://www.w3.org/2000/svg" xmlns:xlink="http://www.w3.org/1999/xlink" version="1.1" width="1080" height="1080" viewBox="0 0 1080 1080" xml:space="preserve">
<desc>Created with Fabric.js 5.2.4</desc>
<defs>
</defs>
<g transform="matrix(1 0 0 1 540 540)" id="b96156cb-bf53-4f3b-9439-e4ee500b0787"  >
<rect style="stroke: none; stroke-width: 1; stroke-dasharray: none; stroke-linecap: butt; stroke-dashoffset: 0; stroke-linejoin: miter; stroke-miterlimit: 4; fill: rgb(255,255,255); fill-rule: nonzero; opacity: 1; visibility: hidden;" vector-effect="non-scaling-stroke"  x="-540" y="-540" rx="0" ry="0" width="1080" height="1080" />
</g>
<g transform="matrix(0 0 0 0 0 0)" id="29d47ae6-d340-40c9-985c-11f50290f88c"  >
</g>
<g transform="matrix(1.2 0 0 1.2 506.43 484.88)"  >
<g style="" vector-effect="non-scaling-stroke"   >
		<g transform="matrix(1 0 0 1 25.67 48.6)"  >
<path style="stroke: none; stroke-width: 1; stroke-dasharray: none; stroke-linecap: butt; stroke-dashoffset: 0; stroke-linejoin: miter; stroke-miterlimit: 4; fill: rgb(255,255,255); fill-rule: nonzero; opacity: 1;" vector-effect="non-scaling-stroke"  transform=" translate(-86.58, -107.03)" d="M 51.344 116.856 L 65.036 116.856 L 65.036 115.428 L 53.08 115.428 L 53.08 97.19999999999999 L 51.344 97.19999999999999 L 51.344 116.856 z M 83.11952 97.2 L 81.38351999999999 97.2 L 81.38351999999999 99.272 Q 81.38351999999999 101.848 79.59151999999999 103.584 Q 77.82751999999999 105.26400000000001 75.39151999999999 105.26400000000001 Q 72.78751999999999 105.26400000000001 71.10751999999998 103.584 Q 69.42751999999997 101.904 69.42751999999997 99.272 L 69.42751999999997 97.2 L 67.69151999999997 97.2 L 67.69151999999997 99.272 Q 67.69151999999997 102.408 69.59551999999996 104.59200000000001 Q 71.47151999999997 106.80400000000002 74.35551999999997 107.00000000000001 L 74.35551999999997 116.82800000000002 L 76.11951999999997 116.82800000000002 L 76.11951999999997 107.00000000000001 Q 79.05951999999996 106.77600000000001 81.07551999999997 104.59200000000001 Q 83.11951999999997 102.40800000000002 83.11951999999997 99.27200000000002 L 83.11951999999997 97.20000000000002 z M 86.78304 116.8 L 88.51904 116.8 L 88.51904 104.928 Q 88.51904 102.576 90.31104 100.728 Q 92.10304000000001 98.93599999999999 94.45504000000001 98.93599999999999 Q 96.80704000000001 98.93599999999999 98.65504000000001 100.728 Q 100.44704000000002 102.576 100.44704000000002 104.928 L 100.44704000000002 116.8 L 102.18304000000002 116.8 L 102.18304000000002 104.928 Q 102.18304000000002 101.73599999999999 99.91504000000002 99.468 Q 97.64704000000002 97.20000000000002 94.45504000000003 97.2 Q 91.31904000000003 97.2 89.05104000000003 99.468 Q 86.78304000000003 101.736 86.78304000000003 104.928 L 86.78304000000003 116.8 z M 106.40656 116.8 L 108.14256 116.8 L 108.14256 104.928 Q 108.14256 102.576 109.93456 100.728 Q 111.72656 98.93599999999999 114.07856000000001 98.93599999999999 Q 116.43056000000001 98.93599999999999 118.27856000000001 100.728 Q 120.07056000000001 102.576 120.07056000000001 104.928 L 120.07056000000001 116.8 L 121.80656000000002 116.8 L 121.80656000000002 104.928 Q 121.80656000000002 101.73599999999999 119.53856000000002 99.468 Q 117.27056000000002 97.20000000000002 114.07856000000002 97.2 Q 110.94256000000003 97.2 108.67456000000003 99.468 Q 106.40656000000003 101.736 106.40656000000003 104.928 L 106.40656000000003 116.8 z" stroke-linecap="round" />
</g>
		<g transform="matrix(1 0 0 1 -60.9 -58.43)"  >
<path style="stroke: none; stroke-width: 1; stroke-dasharray: none; stroke-linecap: butt; stroke-dashoffset: 0; stroke-linejoin: miter; stroke-miterlimit: 4; fill: rgb(0,0,0); fill-rule: nonzero; opacity: 1;" vector-effect="non-scaling-stroke"  transform=" translate(0, 0)" d="" stroke-linecap="round" />
</g>
</g>
</g>
</svg>